<?xml version="1.0" encoding="UTF-8"?>
<svg id="uuid-6bd4e013-b671-4585-bcb8-43f6d9d061cf" data-name="Express" xmlns="http://www.w3.org/2000/svg" viewBox="0 0 145.79 49.82">
  <defs>
    <style>
      .uuid-8c3e6532-0913-41c4-aa13-4bdd349b942a {
        fill: #fff;
      }
    </style>
  </defs>
  <g id="uuid-73433d2e-e845-4a89-a465-a75af61f790f" data-name="original-wordmark">
    <path id="uuid-35da74de-80db-489e-8aa5-385246dcd2cd" data-name="path4" class="uuid-8c3e6532-0913-41c4-aa13-4bdd349b942a" d="m46.64,41.05V11.93h1.58v4.58c.19-.2.36-.42.52-.65,1.32-2.74,4.1-4.46,7.14-4.43,3.6-.11,6.53,1.23,8.25,4.43,2.22,4.04,2.35,8.9.34,13.05-1.6,3.59-5.56,5.38-9.8,4.72-2.68-.23-5.06-1.8-6.32-4.17v11.58h-1.71Zm1.58-18.82c.14,1.42.19,2.43.35,3.42.62,3.89,2.92,6.2,6.54,6.62,3.5.58,6.92-1.4,8.16-4.72,1.4-3.35,1.3-7.14-.28-10.41-1.33-2.96-4.45-4.69-7.67-4.24-3.01.22-5.55,2.32-6.33,5.24-.34,1.35-.6,2.71-.77,4.09Z"/>
    <path id="uuid-a04549fb-edb2-45d9-859f-6502be53b977" data-name="path6" class="uuid-8c3e6532-0913-41c4-aa13-4bdd349b942a" d="m98.13,26.19c-.5,4.24-4.05,7.46-8.32,7.53-6.62.33-9.73-4.06-10.23-9.14-.34-2.76.1-5.55,1.29-8.07,1.7-3.54,5.48-5.57,9.37-5.02,3.69.31,6.76,2.95,7.63,6.55.34,1.6.58,3.21.74,4.84h-17.41c-.32,4.6,2.15,8.3,5.66,9.19,4.37,1.08,8.1-.82,9.45-4.97.3-1.06.85-1.22,1.82-.91Zm-16.93-4.79h15.56c-.1-4.9-3.15-8.45-7.29-8.51-4.69-.08-8.07,3.34-8.27,8.51Z"/>
    <path id="uuid-652f8424-3576-4267-8b5f-9c07019e142c" data-name="path8" class="uuid-8c3e6532-0913-41c4-aa13-4bdd349b942a" d="m101.34,26.29h1.53c.11,2.29,1.5,4.32,3.59,5.27,2.61,1.17,5.61,1.09,8.15-.22,1.4-.63,2.26-2.07,2.15-3.6.08-1.48-.83-2.84-2.24-3.32-1.68-.62-3.46-.97-5.17-1.52-1.78-.51-3.52-1.14-5.2-1.9-2.75-1.34-2.92-6.58.19-8.24,3.24-1.83,7.2-1.89,10.5-.16,2.01,1.11,3.13,3.36,2.8,5.63h-1.31c0-.06-.12-.12-.12-.18-.16-4.18-3.67-5.47-7.43-5.11-1.12.14-2.21.47-3.23.98-1.25.57-2,1.86-1.87,3.23,0,1.36.86,2.58,2.15,3.03,1.66.6,3.39.99,5.09,1.46,1.37.38,2.79.62,4.11,1.08,1.91.63,3.24,2.37,3.33,4.38.33,2.21-.8,4.37-2.79,5.38-3.59,2.03-9.51,1.49-12.14-1.08-1.35-1.36-2.1-3.2-2.09-5.11Z"/>
    <path id="uuid-6b305787-54bb-40f5-9268-0c9a0b2ddb12" data-name="path10" class="uuid-8c3e6532-0913-41c4-aa13-4bdd349b942a" d="m137.7,18.24h-1.43c0-.19-.08-.37-.1-.53-.05-2.21-1.64-4.08-3.81-4.49-1.99-.57-4.11-.47-6.03.29-1.56.45-2.64,1.87-2.66,3.49-.06,1.6,1.02,3.02,2.58,3.4,2.15.67,4.36,1.08,6.54,1.68.71.17,1.4.38,2.09.63,2.8,1,4.25,4.08,3.25,6.87-.51,1.41-1.58,2.55-2.96,3.14-3.07,1.39-6.58,1.43-9.68.1-2.58-1.11-4.19-3.71-4.04-6.52h1.4c.88,4.24,5.03,6.96,9.27,6.09.95-.2,1.85-.57,2.67-1.1,1.33-.69,2.14-2.09,2.06-3.59.07-1.48-.86-2.83-2.27-3.3-1.68-.62-3.46-.96-5.17-1.51-1.79-.5-3.54-1.13-5.24-1.88-2.69-1.32-2.9-6.52.16-8.17,3.29-1.91,7.34-1.95,10.67-.12,1.91,1.14,2.97,3.31,2.7,5.52Z"/>
    <path id="uuid-164e3757-4f25-4783-833d-0349c1ca8355" data-name="path12" class="uuid-8c3e6532-0913-41c4-aa13-4bdd349b942a" d="m44.03,33.19c-1.17.44-2.48-.06-3.05-1.16-1.75-2.62-3.69-5.13-5.55-7.69l-.81-1.08c-2.22,2.97-4.43,5.82-6.45,8.77-.54,1.05-1.79,1.54-2.9,1.14l8.31-11.15-7.73-10.08c1.15-.41,2.43.04,3.06,1.08,1.8,2.62,3.79,5.13,5.76,7.79,1.99-2.63,3.96-5.15,5.8-7.75.55-1.04,1.79-1.5,2.88-1.08l-3,3.98c-1.34,1.77-2.67,3.56-4.06,5.29-.44.4-.48,1.08-.08,1.52.03.03.05.06.08.08,2.57,3.41,5.12,6.83,7.74,10.33Z"/>
    <path id="uuid-c5edd5ff-f07b-4999-9f8c-df325ff9bdfe" data-name="path14" class="uuid-8c3e6532-0913-41c4-aa13-4bdd349b942a" d="m79.32,11.84v1.51c-4.3-.28-8.01,2.97-8.29,7.27-.02.26-.02.52-.01.79v11.83h-1.54V11.93h1.51v4.37c1.86-3.18,4.73-4.37,8.33-4.45Z"/>
    <path id="uuid-1af1e7b8-2211-435f-8f60-4b490bc40dc3" data-name="path16" class="uuid-8c3e6532-0913-41c4-aa13-4bdd349b942a" d="m5.35,21.88c.23-1.08.37-2.25.68-3.34,1.86-6.61,9.44-9.37,14.66-5.27,3.05,2.4,3.82,5.8,3.67,9.62H7.15c-.28,6.84,4.66,10.97,10.97,8.86,2.08-.74,3.64-2.49,4.16-4.63.33-1.08.87-1.26,1.89-.95-.34,2.65-1.88,5-4.17,6.38-3.84,2.1-8.59,1.49-11.78-1.51-1.54-1.73-2.47-3.91-2.65-6.22,0-.37-.14-.73-.22-1.08,0-.64-.01-1.26-.01-1.87Zm1.82-.46h15.56c-.1-4.96-3.23-8.47-7.4-8.51-4.65-.06-7.97,3.38-8.17,8.48v.02Z"/>
  </g>
</svg>