<?xml version="1.0" encoding="UTF-8"?>
<svg id="uuid-9b9e57f3-d12e-4efd-b24c-a42365f3128f" data-name="Capa 1" xmlns="http://www.w3.org/2000/svg" viewBox="0 0 142.06 63.65">
  <defs>
    <style>
      .uuid-11a4f472-b3f7-4ad7-a52c-90d8f15e3c71 {
        fill: #fff;
      }

      .uuid-11a4f472-b3f7-4ad7-a52c-90d8f15e3c71, .uuid-47764025-88b2-436c-bf0e-bf98b395277e, .uuid-b623ca84-72fb-4b8c-b633-f611a0bfa1ce, .uuid-e43868dd-2646-477a-abaf-7022a466e056 {
        fill-rule: evenodd;
      }

      .uuid-47764025-88b2-436c-bf0e-bf98b395277e {
        fill: #499d4a;
      }

      .uuid-b623ca84-72fb-4b8c-b633-f611a0bfa1ce {
        fill: #58aa50;
      }

      .uuid-e43868dd-2646-477a-abaf-7022a466e056 {
        fill: #a6a385;
      }
    </style>
  </defs>
  <path class="uuid-11a4f472-b3f7-4ad7-a52c-90d8f15e3c71" d="m0,35.85l1.25-3.8s19.29.25,20.6-6.68c5.3-4.67,227.01-1.74.93,17.34,0,0-2.92-5.69-7.82-6.65-4.81-1.06-14.95-.21-14.95-.21h0Z"/>
  <path class="uuid-e43868dd-2646-477a-abaf-7022a466e056" d="m0,35.85l1.25-3.8s19.29.25,20.6-6.68c5.3-4.67,227.01-1.74.93,17.34,0,0-2.92-5.69-7.82-6.65-4.81-1.06-14.95-.21-14.95-.21h0Z"/>
  <path class="uuid-11a4f472-b3f7-4ad7-a52c-90d8f15e3c71" d="m18.66,37.68s22.14,32.89,67.36,24.64c32.86-7.83,43.46-25.58,47.6-27.56,2.93-2.15,8.07-4.24,8.07-4.24l-91.61,2.38c-.09,0-28.08-2.56-31.42,4.77"/>
  <path class="uuid-47764025-88b2-436c-bf0e-bf98b395277e" d="m18.66,37.68s22.14,32.89,67.36,24.64c32.86-7.83,43.46-25.58,47.6-27.56,2.93-2.15,8.07-4.24,8.07-4.24l-91.61,2.38c-.09,0-28.08-2.56-31.42,4.77"/>
  <path class="uuid-11a4f472-b3f7-4ad7-a52c-90d8f15e3c71" d="m17.38,29.94S38.26-1.39,75.65.05c37.39,1.35,55.99,23.11,59.36,27.32,2.98,2.74,4.09,2.82,7.05,2.97-4.13,1.98-62.08,2.25-68.91,2.6-26.29,1.12-50.77-.92-55.77-2.99h0Z"/>
  <path class="uuid-b623ca84-72fb-4b8c-b633-f611a0bfa1ce" d="m17.38,29.94S38.26-1.39,75.65.05c37.39,1.35,55.99,23.11,59.36,27.32,2.98,2.74,4.09,2.82,7.05,2.97-4.13,1.98-62.08,2.25-68.91,2.6-26.29,1.12-50.77-.92-55.77-2.99h0Z"/>
</svg>