<?xml version="1.0" encoding="UTF-8"?>
<svg id="uuid-1182bb68-ef78-41c4-bde9-a6a72867d011" data-name="Layer 1" xmlns="http://www.w3.org/2000/svg" viewBox="0 0 1409.72 1517.7">
  <defs>
    <style>
      .uuid-63c38e05-30a0-4a5a-b08e-b4b3a67e75a6 {
        fill: #8cc84b;
      }
    </style>
  </defs>
  <path class="uuid-63c38e05-30a0-4a5a-b08e-b4b3a67e75a6" d="m661.27,62.91c34.68-19.85,79.85-19.94,114.5,0,174.33,98.5,348.71,196.85,523,295.41,32.78,18.47,54.71,54.95,54.38,92.72v592.63c.24,39.34-23.85,76.69-58.44,94.74-173.75,97.96-347.42,196.04-521.14,294-35.4,20.24-81.48,18.68-115.77-3.22-52.09-30.2-104.27-60.25-156.37-90.41-10.65-6.35-22.65-11.4-30.16-21.72,6.65-8.96,18.53-10.07,28.18-13.98,21.74-6.91,41.71-18.01,61.69-28.78,5.05-3.46,11.22-2.13,16.06.96,44.54,25.54,88.69,51.82,133.39,77.12,9.53,5.5,19.19-1.8,27.34-6.35,170.51-96.37,341.22-192.37,511.69-288.76,6.32-3.04,9.81-9.74,9.3-16.66.12-195.5.03-391.03.06-586.53.72-7.85-3.82-15.07-10.92-18.28-173.15-97.51-346.21-195.17-519.33-292.71-6.14-4.22-14.24-4.23-20.39-.03-173.12,97.57-346.15,195.32-519.27,292.82-7.07,3.22-11.82,10.32-10.98,18.2.03,195.5,0,391.03,0,586.56-.61,6.91,3.14,13.48,9.41,16.45,46.2,26.2,92.46,52.21,138.68,78.32,26.04,14.02,58.02,22.35,86.71,11.61,25.32-9.08,43.07-34.92,42.59-61.8.24-194.36-.12-388.74.18-583.07-.63-8.63,7.55-15.76,15.94-14.94,22.2-.15,44.42-.3,66.62.06,9.27-.21,15.64,9.08,14.5,17.77-.09,195.59.24,391.18-.15,586.76.06,52.13-21.36,108.84-69.57,134.35-59.4,30.77-132.82,24.24-191.5-5.26-50.8-25.36-99.28-55.28-149.18-82.44-34.68-17.95-58.65-55.45-58.41-94.76V451.05c-.36-38.56,22.44-75.7,56.24-93.9,173.72-98.04,347.42-196.15,521.11-294.24Z"/>
  <path class="uuid-63c38e05-30a0-4a5a-b08e-b4b3a67e75a6" d="m812.82,473.43c75.77-4.88,156.88-2.89,225.06,34.44,52.79,28.6,82.05,88.63,82.99,147.28-1.47,7.91-9.74,12.27-17.3,11.73-21.98-.03-43.97.3-65.95-.15-9.33.36-14.75-8.24-15.92-16.48-6.32-28.06-21.62-55.85-48.03-69.39-40.54-20.3-87.55-19.28-131.76-18.85-32.27,1.71-66.98,4.51-94.32,23.49-20.99,14.38-27.37,43.4-19.88,66.77,7.06,16.78,26.44,22.2,42.29,27.19,91.31,23.88,188.07,21.5,277.64,52.93,37.08,12.81,73.36,37.72,86.05,76.54,16.6,52.04,9.33,114.23-27.7,156.01-30.02,34.38-73.75,53.09-117.36,63.25-58.02,12.94-118.23,13.27-177.15,7.52-55.4-6.32-113.06-20.87-155.83-58.62-36.57-31.76-54.44-81.24-52.66-128.99.42-8.06,8.45-13.69,16.18-13.03,22.14-.18,44.28-.24,66.41.03,8.84-.63,15.4,7.01,15.85,15.34,4.08,26.74,14.13,54.8,37.45,70.65,44.99,29.03,101.45,27.04,152.97,27.85,42.68-1.89,90.59-2.47,125.42-30.68,18.38-16.09,23.82-43.01,18.85-66.17-5.38-19.55-25.83-28.66-43.4-34.62-90.14-28.51-187.98-18.17-277.25-50.41-36.24-12.81-71.28-37.02-85.21-74.25-19.43-52.69-10.53-117.87,30.38-158.24,39.88-40.15,97.45-55.61,152.19-61.15h0Z"/>
</svg>